# This file uses centimeters as units for non-parametric coordinates.

mtllib ammoPU.mtl
g default
v -1.968750 4.125000 1.875000
v 1.968750 4.125000 1.875000
v -1.968750 4.375000 1.875000
v 1.968750 4.375000 1.875000
v -1.968750 4.375000 -1.875000
v 1.968750 4.375000 -1.875000
v -1.968750 4.125000 -1.875000
v 1.968750 4.125000 -1.875000
v 0.000000 8.375000 0.000000
v 0.000000 0.125000 0.000000
vt 0.375000 0.000000
vt 0.625000 0.000000
vt 0.375000 0.250000
vt 0.625000 0.250000
vt 0.375000 0.500000
vt 0.625000 0.500000
vt 0.375000 0.750000
vt 0.625000 0.750000
vt 0.375000 1.000000
vt 0.625000 1.000000
vt 0.875000 0.000000
vt 0.875000 0.250000
vt 0.125000 0.000000
vt 0.125000 0.250000
vt 0.500000 0.375000
vt 0.500000 0.875000
vn 0.000000 0.000000 1.000000
vn 0.000000 0.000000 1.000000
vn 0.000000 0.000000 1.000000
vn 0.000000 0.000000 1.000000
vn -0.570591 0.561676 -0.599121
vn 0.000000 1.000000 0.000000
vn 0.570591 0.561676 -0.599121
vn 0.000000 0.000000 -1.000000
vn 0.000000 0.000000 -1.000000
vn 0.000000 0.000000 -1.000000
vn 0.000000 0.000000 -1.000000
vn -0.570591 -0.561676 -0.599121
vn 0.570591 -0.561676 -0.599121
vn 0.000000 -1.000000 0.000000
vn 1.000000 0.000000 0.000000
vn 1.000000 0.000000 0.000000
vn 1.000000 0.000000 0.000000
vn 1.000000 0.000000 0.000000
vn -1.000000 0.000000 0.000000
vn -1.000000 0.000000 0.000000
vn -1.000000 0.000000 0.000000
vn -1.000000 0.000000 0.000000
vn -0.570591 0.561676 0.599121
vn 0.570591 0.561676 0.599121
vn -0.570591 -0.561676 0.599121
vn 0.570591 -0.561676 0.599121
s off
g pCube1
usemtl initialShadingGroup
f 1/1/1 2/2/2 4/4/3 3/3/4
s 1
f 5/5/5 9/15/6 6/6/7
s off
f 5/5/8 6/6/9 8/8/10 7/7/11
s 2
f 7/7/12 8/8/13 10/16/14
s off
f 2/2/15 8/11/16 6/12/17 4/4/18
f 7/13/19 1/1/20 3/3/21 5/14/22
s 1
f 3/3/23 9/15/6 5/5/5
f 3/3/23 4/4/24 9/15/6
f 6/6/7 9/15/6 4/4/24
s 2
f 7/7/12 10/16/14 1/9/25
f 10/16/14 8/8/13 2/10/26
f 1/9/25 10/16/14 2/10/26
